<svg width="16" height="16" viewBox="0 0 16 16" fill="none" xmlns="http://www.w3.org/2000/svg">
<g clip-path="url(#clip0_18_46)">
<mask id="mask0_18_46" style="mask-type:alpha" maskUnits="userSpaceOnUse" x="0" y="0" width="16" height="16">
<path d="M0 1.29032C0 0.577697 0.577697 0 1.29032 0H14.7097C15.4223 0 16 0.577697 16 1.29032V14.7097C16 15.4223 15.4223 16 14.7097 16H1.29032C0.577697 16 0 15.4223 0 14.7097V1.29032Z" fill="#D9D9D9"/>
</mask>
<g mask="url(#mask0_18_46)">
<path d="M8 8L0 16V0L8 8Z" fill="#60D5C4"/>
<path d="M8 8L16 16V0L8 8Z" fill="#60D5C4"/>
<path d="M8 8L16 16H0L8 8Z" fill="#71E9D8"/>
<path d="M8 8L16 0L0 0L8 8Z" fill="#71E9D8"/>
<path d="M13.8564 2.06458H2.14371C2.10001 2.06458 2.06458 2.10001 2.06458 2.14371V13.8564C2.06458 13.9001 2.10001 13.9355 2.14371 13.9355H13.8564C13.9001 13.9355 13.9355 13.9001 13.9355 13.8564V2.14371C13.9355 2.10001 13.9001 2.06458 13.8564 2.06458Z" fill="#09B6A2"/>
<path d="M9.70273 9.95015C9.57295 9.95015 9.4594 9.9047 9.36207 9.81379C9.26937 9.71834 9.22302 9.60698 9.22302 9.47971C9.22302 9.34789 9.26937 9.23653 9.36207 9.14562C9.4594 9.05017 9.57295 9.00244 9.70273 9.00244C9.83714 9.00244 9.95069 9.05017 10.0434 9.14562C10.1361 9.23653 10.1824 9.34789 10.1824 9.47971C10.1824 9.60698 10.1361 9.71834 10.0434 9.81379C9.95069 9.9047 9.83714 9.95015 9.70273 9.95015Z" fill="white"/>
<path d="M8.04611 9.95015C7.91634 9.95015 7.80278 9.9047 7.70545 9.81379C7.61275 9.71834 7.56641 9.60698 7.56641 9.47971C7.56641 9.34789 7.61275 9.23653 7.70545 9.14562C7.80278 9.05017 7.91634 9.00244 8.04611 9.00244C8.18052 9.00244 8.29407 9.05017 8.38677 9.14562C8.47947 9.23653 8.52581 9.34789 8.52581 9.47971C8.52581 9.60698 8.47947 9.71834 8.38677 9.81379C8.29407 9.9047 8.18052 9.95015 8.04611 9.95015Z" fill="white"/>
<path d="M6.38949 9.95015C6.25972 9.95015 6.14617 9.9047 6.04883 9.81379C5.95614 9.71834 5.90979 9.60698 5.90979 9.47971C5.90979 9.34789 5.95614 9.23653 6.04883 9.14562C6.14617 9.05017 6.25972 9.00244 6.38949 9.00244C6.5239 9.00244 6.63746 9.05017 6.73015 9.14562C6.82285 9.23653 6.8692 9.34789 6.8692 9.47971C6.8692 9.60698 6.82285 9.71834 6.73015 9.81379C6.63746 9.9047 6.5239 9.95015 6.38949 9.95015Z" fill="white"/>
<path d="M11.095 11.4364C10.9931 11.4364 10.9097 11.4024 10.8448 11.3342C10.7799 11.2705 10.7474 11.1887 10.7474 11.0887C10.7474 10.9842 10.7799 10.9001 10.8448 10.8365C10.9097 10.7728 10.9931 10.741 11.095 10.741C11.3778 10.741 11.5191 10.6024 11.5191 10.3251V8.73649C11.5191 8.41831 11.5933 8.16605 11.7416 7.97969C11.6674 7.88423 11.6118 7.77287 11.5748 7.6456C11.5377 7.51833 11.5191 7.37515 11.5191 7.21606V5.62746C11.5191 5.35019 11.3778 5.21156 11.095 5.21156C10.9931 5.21156 10.9097 5.17974 10.8448 5.1161C10.7799 5.05247 10.7474 4.97065 10.7474 4.87065C10.7474 4.77065 10.7799 4.68656 10.8448 4.61838C10.9097 4.5502 10.9931 4.51611 11.095 4.51611C11.8505 4.51611 12.2283 4.88656 12.2283 5.62746V7.21606C12.2283 7.49333 12.3673 7.63196 12.6454 7.63196C12.7474 7.63196 12.8308 7.66378 12.8957 7.72742C12.9652 7.79105 13 7.87514 13 7.97969C13 8.07968 12.9652 8.1615 12.8957 8.22514C12.8308 8.28877 12.7474 8.32059 12.6454 8.32059C12.3673 8.32059 12.2283 8.45922 12.2283 8.73649V10.3251C12.2283 11.066 11.8505 11.4364 11.095 11.4364Z" fill="white"/>
<path d="M5.00171 11.4364C4.24624 11.4364 3.8685 11.066 3.8685 10.3251V8.73649C3.8685 8.45922 3.72946 8.32059 3.45137 8.32059C3.3494 8.32059 3.26366 8.28877 3.19413 8.22514C3.12925 8.1615 3.0968 8.07968 3.0968 7.97969C3.0968 7.87514 3.12925 7.79105 3.19413 7.72742C3.26366 7.66378 3.3494 7.63196 3.45137 7.63196C3.72946 7.63196 3.8685 7.49333 3.8685 7.21606V5.62746C3.8685 4.88656 4.24624 4.51611 5.00171 4.51611C5.10368 4.51611 5.18711 4.5502 5.25199 4.61838C5.31688 4.68656 5.34933 4.77065 5.34933 4.87065C5.34933 4.97065 5.31688 5.05247 5.25199 5.1161C5.18711 5.17974 5.10368 5.21156 5.00171 5.21156C4.71899 5.21156 4.57763 5.35019 4.57763 5.62746V7.21606C4.57763 7.37515 4.55909 7.51833 4.52201 7.6456C4.48493 7.77287 4.42931 7.88423 4.35516 7.97969C4.50347 8.16605 4.57763 8.41831 4.57763 8.73649V10.3251C4.57763 10.6024 4.71899 10.741 5.00171 10.741C5.10368 10.741 5.18711 10.7728 5.25199 10.8365C5.31688 10.9001 5.34933 10.9842 5.34933 11.0887C5.34933 11.1887 5.31688 11.2705 5.25199 11.3342C5.18711 11.4024 5.10368 11.4364 5.00171 11.4364Z" fill="white"/>
</g>
</g>
<defs>
<clipPath id="clip0_18_46">
<rect width="16" height="16.0004" fill="white" transform="translate(0 0.00146484)"/>
</clipPath>
</defs>
</svg>
